<svg width="720" height="863" viewBox="0 0 720 863" fill="none" xmlns="http://www.w3.org/2000/svg">
<rect width="720" height="906" fill="#F5FFDA"/>
<path d="M528 645C528 683.108 495.764 714 456 714C416.235 714 384 683.108 384 645C384 606.892 416.235 576 456 576C495.764 576 528 606.892 528 645Z" fill="#A7CC48"/>
<path d="M384 906L384 871.5C443.647 871.5 492 825.161 492 768L528 768C528 844.215 463.529 906 384 906Z" fill="#A7CC48"/>
<path d="M720 330C680.235 330 648 299.108 648 261H720V330Z" fill="#4F6120"/>
<path d="M720 192C720 230.108 687.765 261 648 261L648 192L720 192Z" fill="#4F6120"/>
<path d="M576 192C615.764 192 648 222.892 648 261L576 261L576 192Z" fill="#4F6120"/>
<path d="M576 330C576 291.892 608.236 261 648 261L648 330L576 330Z" fill="#4F6120"/>
<path d="M651.512 715.475C649.232 723.513 648 732.091 648 741C648 749.908 649.232 758.487 651.512 766.525L651.512 715.475Z" fill="#4F6120"/>
<path d="M658.537 783.991C657.26 781.601 656.087 779.13 655.024 776.587L655.024 705.413C656.087 702.87 657.26 700.399 658.537 698.009L658.537 783.991Z" fill="#4F6120"/>
<path d="M665.561 794.995C664.335 793.373 663.163 791.696 662.049 789.968L662.049 692.032C663.163 690.304 664.335 688.627 665.561 687.005L665.561 794.995Z" fill="#4F6120"/>
<path d="M672.585 803.087C671.378 801.875 670.207 800.619 669.073 799.319L669.073 682.681C670.207 681.381 671.378 680.124 672.585 678.913L672.585 803.087Z" fill="#4F6120"/>
<path d="M679.61 809.306C678.413 808.375 677.242 807.404 676.098 806.394L676.098 675.606C677.242 674.596 678.413 673.625 679.61 672.694L679.61 809.306Z" fill="#4F6120"/>
<path d="M686.634 814.126C685.443 813.411 684.272 812.659 683.122 811.871L683.122 670.129C684.272 669.341 685.443 668.589 686.634 667.874L686.634 814.126Z" fill="#4F6120"/>
<path d="M693.659 817.804C692.472 817.269 691.301 816.7 690.146 816.096L690.146 665.904C691.301 665.3 692.472 664.73 693.659 664.196L693.659 817.804Z" fill="#4F6120"/>
<path d="M700.683 820.497C699.5 820.12 698.329 819.71 697.171 819.267L697.171 662.733C698.329 662.29 699.5 661.88 700.683 661.503L700.683 820.497Z" fill="#4F6120"/>
<path d="M707.707 822.302C706.527 822.07 705.356 821.804 704.195 821.506L704.195 660.494C705.356 660.196 706.527 659.93 707.707 659.698L707.707 822.302Z" fill="#4F6120"/>
<path d="M714.732 823.282C713.553 823.185 712.382 823.055 711.22 822.893L711.22 659.107C712.382 658.945 713.553 658.815 714.732 658.717L714.732 823.282Z" fill="#4F6120"/>
<path d="M720 823.476C718.83 823.508 719.414 823.508 718.244 823.476L718.244 658.524C719.411 658.492 718.833 658.492 720 658.524L720 823.476Z" fill="#4F6120"/>
<path fill-rule="evenodd" clip-rule="evenodd" d="M720 576C640.471 576 576 649.873 576 741C576 832.127 640.471 906 720 906L720 576ZM720 617.25C660.353 617.25 612 672.655 612 741C612 809.345 660.353 864.75 720 864.75V617.25Z" fill="#4F6120"/>
<path d="M720 384H716.488V522H720V384Z" fill="#A7CC48"/>
<path d="M712.976 384H709.463V522H712.976V384Z" fill="#A7CC48"/>
<path d="M705.951 384H702.439V522H705.951V384Z" fill="#A7CC48"/>
<path d="M698.927 384H695.415V522H698.927V384Z" fill="#A7CC48"/>
<path d="M691.902 384H688.39V522H691.902V384Z" fill="#A7CC48"/>
<path d="M684.878 384H681.366V522H684.878V384Z" fill="#A7CC48"/>
<path d="M677.854 384H674.341V522H677.854V384Z" fill="#A7CC48"/>
<path d="M670.829 384H667.317V522H670.829V384Z" fill="#A7CC48"/>
<path d="M663.805 384H660.293V522H663.805V384Z" fill="#A7CC48"/>
<path d="M656.78 384H653.268V522H656.78V384Z" fill="#A7CC48"/>
<path d="M649.756 384H646.244V522H649.756V384Z" fill="#A7CC48"/>
<path d="M642.732 384H639.22V522H642.732V384Z" fill="#A7CC48"/>
<path d="M635.707 384H632.195V522H635.707V384Z" fill="#A7CC48"/>
<path d="M628.683 384H625.171V522H628.683V384Z" fill="#A7CC48"/>
<path d="M621.659 384H618.146V522H621.659V384Z" fill="#A7CC48"/>
<path d="M614.634 384H611.122V522H614.634V384Z" fill="#A7CC48"/>
<path d="M607.61 384H604.098V522H607.61V384Z" fill="#A7CC48"/>
<path d="M600.585 384H597.073V522H600.585V384Z" fill="#A7CC48"/>
<path d="M593.561 384H590.049V522H593.561V384Z" fill="#A7CC48"/>
<path d="M586.537 384H583.024V522H586.537V384Z" fill="#A7CC48"/>
<path d="M579.512 384H576V522H579.512V384Z" fill="#A7CC48"/>
<path d="M685.8 418.5H613.8V487.5H685.8V418.5Z" fill="#A7CC48"/>
<path fill-rule="evenodd" clip-rule="evenodd" d="M195.512 47.6522C193.232 54.3743 192 61.5492 192 69C192 76.4508 193.232 83.6257 195.512 90.3478V47.6522ZM202.537 104.956C201.26 102.957 200.087 100.89 199.024 98.7635V39.2365C200.087 37.1096 201.26 35.043 202.537 33.0435V104.956ZM209.561 114.159C208.335 112.803 207.163 111.401 206.049 109.955V28.0451C207.163 26.5994 208.335 25.1969 209.561 23.8407V114.159ZM216.585 120.927C215.378 119.914 214.207 118.863 213.073 117.776V20.2241C214.207 19.137 215.378 18.0859 216.585 17.0729V120.927ZM223.61 126.129C222.413 125.35 221.242 124.538 220.098 123.693V14.307C221.242 13.4624 222.413 12.6501 223.61 11.8713V126.129ZM230.634 130.16C229.443 129.562 228.272 128.933 227.122 128.274V9.72571C228.272 9.067 229.443 8.43817 230.634 7.84034V130.16ZM237.659 133.236C236.472 132.789 235.301 132.313 234.146 131.808V6.19231C235.301 5.68743 236.472 5.21094 237.659 4.76376V133.236ZM244.683 135.488C243.5 135.173 242.329 134.83 241.171 134.459V3.54058C242.329 3.16987 243.5 2.82659 244.683 2.51154V135.488ZM251.707 136.998C250.526 136.804 249.356 136.581 248.195 136.332V1.66764C249.356 1.41857 250.526 1.19634 251.707 1.00168V136.998ZM258.732 137.818C257.553 137.736 256.382 137.628 255.22 137.492V0.507929C256.382 0.372488 257.553 0.263594 258.732 0.181897V137.818ZM265.756 137.98C265.172 137.993 264.587 138 264 138C263.413 138 262.828 137.993 262.244 137.98V0.0201218C262.828 0.00673265 263.413 0 264 0C264.587 0 265.172 0.00673265 265.756 0.0201218V137.98ZM272.78 137.492C271.618 137.628 270.447 137.736 269.268 137.818V0.181897C270.447 0.263593 271.618 0.372488 272.78 0.507929V137.492ZM279.805 136.332C278.644 136.581 277.473 136.804 276.293 136.998V1.00168C277.473 1.19634 278.644 1.41857 279.805 1.66764V136.332ZM286.829 134.459C285.671 134.83 284.5 135.173 283.317 135.488V2.51154C284.5 2.82659 285.671 3.16987 286.829 3.54058V134.459ZM293.854 131.808C292.699 132.313 291.528 132.789 290.341 133.236V4.76376C291.528 5.21094 292.699 5.68743 293.854 6.19231V131.808ZM300.878 128.274C299.728 128.933 298.557 129.562 297.366 130.16V7.84034C298.557 8.43817 299.728 9.067 300.878 9.72571V128.274ZM307.902 123.693C306.758 124.538 305.587 125.35 304.39 126.129V11.8713C305.587 12.6501 306.758 13.4624 307.902 14.307V123.693ZM314.927 117.776C313.793 118.863 312.622 119.914 311.415 120.927V17.0729C312.622 18.0859 313.793 19.137 314.927 20.2241V117.776ZM321.951 109.955C320.837 111.401 319.665 112.803 318.439 114.159V23.8407C319.665 25.1969 320.837 26.5994 321.951 28.0451V109.955ZM328.976 98.7635C327.913 100.89 326.74 102.957 325.463 104.956V33.0435C326.74 35.043 327.913 37.1096 328.976 39.2364V98.7635ZM336 69C336 76.4508 334.768 83.6257 332.488 90.3478V47.6521C334.768 54.3743 336 61.5492 336 69Z" fill="#8AB51B"/>
<path d="M336 69C336 107.108 303.764 138 264 138V0C303.764 0 336 30.8923 336 69Z" fill="#8AB51B"/>
<path d="M0 0C39.7645 0 72 30.8923 72 69C72 30.8923 104.235 0 144 0V69C144 107.108 111.764 138 72 138C32.2355 138 0 107.108 0 69V0Z" fill="#8AB51B"/>
<path d="M144 261C144 299.108 111.765 330 72 330C32.2355 330 0 299.108 0 261H144Z" fill="#A7CC48"/>
<path d="M0.000153212 192H3.51235V261L0 261L0.000153212 192Z" fill="#A7CC48"/>
<path d="M7.02455 192H10.5367V261H7.02455V192Z" fill="#A7CC48"/>
<path d="M14.0489 192H17.5611V261H14.0489V192Z" fill="#A7CC48"/>
<path d="M21.0733 192H24.5855V261H21.0733V192Z" fill="#A7CC48"/>
<path d="M28.0977 192H31.6099V261H28.0977V192Z" fill="#A7CC48"/>
<path d="M35.1221 192H38.6343V261H35.1221V192Z" fill="#A7CC48"/>
<path d="M42.1465 192H45.6587V261H42.1465V192Z" fill="#A7CC48"/>
<path d="M49.1709 192H52.6831V261H49.1709V192Z" fill="#A7CC48"/>
<path d="M56.1953 192H59.7075V261H56.1953V192Z" fill="#A7CC48"/>
<path d="M63.2197 192H66.7319V261H63.2197V192Z" fill="#A7CC48"/>
<path d="M70.2441 192H73.7563V261H70.2441V192Z" fill="#A7CC48"/>
<path d="M77.2685 192H80.7807V261H77.2685V192Z" fill="#A7CC48"/>
<path d="M84.2929 192H87.8051V261H84.2929V192Z" fill="#A7CC48"/>
<path d="M91.3173 192H94.8294V261H91.3173V192Z" fill="#A7CC48"/>
<path d="M98.3416 192H101.854V261H98.3416V192Z" fill="#A7CC48"/>
<path d="M105.366 192H108.878V261H105.366V192Z" fill="#A7CC48"/>
<path d="M112.39 192H115.903V261H112.39V192Z" fill="#A7CC48"/>
<path d="M119.415 192H122.927V261H119.415V192Z" fill="#A7CC48"/>
<path d="M126.439 192H129.951V261H126.439V192Z" fill="#A7CC48"/>
<path d="M133.464 192H136.976V261H133.464V192Z" fill="#A7CC48"/>
<path d="M140.488 192H144L144 261L140.488 261V192Z" fill="#A7CC48"/>
<path fill-rule="evenodd" clip-rule="evenodd" d="M456 138C495.764 138 528 107.108 528 69C528 30.8923 495.764 0 456 0C416.235 0 384 30.8923 384 69C384 107.108 416.235 138 456 138ZM456 103.5C475.882 103.5 492 88.0538 492 69C492 49.9462 475.882 34.5 456 34.5C436.118 34.5 420 49.9462 420 69C420 88.0538 436.118 103.5 456 103.5Z" fill="#4F6120"/>
<path d="M422.634 56.0216C420.936 60.0279 420 64.4092 420 69C420 73.5907 420.936 77.9721 422.634 81.9784V56.0216Z" fill="#4F6120"/>
<path d="M429.658 92.516C428.377 91.1983 427.202 89.7843 426.146 88.2866V49.7134C427.202 48.2157 428.377 46.8017 429.658 45.484V92.516Z" fill="#4F6120"/>
<path d="M436.683 98.1178C435.46 97.3712 434.287 96.5557 433.171 95.6771V42.3229C434.287 41.4443 435.46 40.6288 436.683 39.8822V98.1178Z" fill="#4F6120"/>
<path d="M443.707 101.436C442.505 101.018 441.333 100.54 440.195 100.006V37.9939C441.333 37.4601 442.505 36.982 443.707 36.5636V101.436Z" fill="#4F6120"/>
<path d="M450.732 103.133C449.541 102.966 448.369 102.743 447.219 102.467V35.5335C448.369 35.2573 449.541 35.0341 450.732 34.8668V103.133Z" fill="#4F6120"/>
<path d="M457.756 103.46C457.174 103.486 456.589 103.5 456 103.5C455.411 103.5 454.826 103.486 454.244 103.46V34.5403C454.826 34.5135 455.411 34.5 456 34.5C456.589 34.5 457.174 34.5135 457.756 34.5403V103.46Z" fill="#4F6120"/>
<path d="M464.78 102.467C463.631 102.743 462.459 102.966 461.268 103.133V34.8668C462.459 35.0341 463.631 35.2573 464.78 35.5335V102.467Z" fill="#4F6120"/>
<path d="M471.805 100.006C470.667 100.54 469.495 101.018 468.293 101.436V36.5636C469.495 36.982 470.667 37.46 471.805 37.9939V100.006Z" fill="#4F6120"/>
<path d="M478.829 95.6772C477.713 96.5557 476.54 97.3712 475.317 98.1178V39.8821C476.54 40.6288 477.713 41.4442 478.829 42.3228V95.6772Z" fill="#4F6120"/>
<path d="M485.854 88.2866C484.798 89.7843 483.623 91.1983 482.341 92.5161V45.4839C483.623 46.8017 484.798 48.2157 485.854 49.7134V88.2866Z" fill="#4F6120"/>
<path d="M489.366 56.0215C491.064 60.0279 492 64.4092 492 69C492 73.5908 491.064 77.9721 489.366 81.9785V56.0215Z" fill="#4F6120"/>
<path d="M3.51219 815.652C1.23229 822.374 0 829.549 0 837C0 844.451 1.23229 851.626 3.51219 858.348V815.652Z" fill="#4F6120"/>
<path d="M10.5366 872.956C9.26023 870.957 8.08713 868.89 7.02439 866.764V807.236C8.08713 805.11 9.26023 803.043 10.5366 801.044V872.956Z" fill="#4F6120"/>
<path d="M17.561 882.159C16.3349 880.803 15.1631 879.401 14.0488 877.955V796.045C15.1631 794.599 16.3349 793.197 17.561 791.841V882.159Z" fill="#4F6120"/>
<path d="M24.5854 888.927C23.3783 887.914 22.2069 886.863 21.0732 885.776V788.224C22.2069 787.137 23.3783 786.086 24.5854 785.073V888.927Z" fill="#4F6120"/>
<path d="M31.6098 894.129C30.4128 893.35 29.2415 892.538 28.0976 891.693V782.307C29.2415 781.462 30.4128 780.65 31.6098 779.871V894.129Z" fill="#4F6120"/>
<path d="M38.6341 898.16C37.4434 897.562 36.2723 896.933 35.1219 896.274V777.726C36.2723 777.067 37.4434 776.438 38.6341 775.84V898.16Z" fill="#4F6120"/>
<path d="M45.6585 901.236C44.4721 900.789 43.301 900.313 42.1463 899.808V774.192C43.301 773.687 44.4721 773.211 45.6585 772.764V901.236Z" fill="#4F6120"/>
<path d="M52.6829 903.488C51.4996 903.173 50.3286 902.83 49.1707 902.459V771.541C50.3286 771.17 51.4996 770.827 52.6829 770.512V903.488Z" fill="#4F6120"/>
<path d="M59.7073 904.998C58.5265 904.804 57.3555 904.581 56.1951 904.332V769.668C57.3555 769.419 58.5265 769.196 59.7073 769.002V904.998Z" fill="#4F6120"/>
<path d="M66.7317 905.818C65.5529 905.736 64.3819 905.628 63.2195 905.492V768.508C64.3819 768.372 65.5529 768.264 66.7317 768.182V905.818Z" fill="#4F6120"/>
<path d="M73.7561 905.98C73.1724 905.993 72.587 906 72 906C71.413 906 70.8276 905.993 70.2439 905.98V768.02C70.8276 768.007 71.413 768 72 768C72.587 768 73.1724 768.007 73.7561 768.02V905.98Z" fill="#4F6120"/>
<path d="M80.7805 905.492C79.6181 905.628 78.4471 905.736 77.2683 905.818V768.182C78.4471 768.264 79.6181 768.372 80.7805 768.508V905.492Z" fill="#4F6120"/>
<path d="M87.8049 904.332C86.6445 904.581 85.4735 904.804 84.2927 904.998V769.002C85.4735 769.196 86.6445 769.419 87.8049 769.668V904.332Z" fill="#4F6120"/>
<path d="M94.8293 902.459C93.6713 902.83 92.5003 903.173 91.3171 903.488V770.512C92.5003 770.827 93.6713 771.17 94.8293 771.541V902.459Z" fill="#4F6120"/>
<path d="M101.854 899.808C100.699 900.313 99.5279 900.789 98.3415 901.236V772.764C99.5279 773.211 100.699 773.687 101.854 774.192V899.808Z" fill="#4F6120"/>
<path d="M108.878 896.274C107.728 896.933 106.557 897.562 105.366 898.16V775.84C106.557 776.438 107.728 777.067 108.878 777.726V896.274Z" fill="#4F6120"/>
<path d="M115.902 891.693C114.758 892.538 113.587 893.35 112.39 894.129V779.871C113.587 780.65 114.758 781.462 115.902 782.307V891.693Z" fill="#4F6120"/>
<path d="M122.927 885.776C121.793 886.863 120.622 887.914 119.415 888.927V785.073C120.622 786.086 121.793 787.137 122.927 788.224V885.776Z" fill="#4F6120"/>
<path d="M129.951 877.955C128.837 879.401 127.665 880.803 126.439 882.159V791.841C127.665 793.197 128.837 794.599 129.951 796.045V877.955Z" fill="#4F6120"/>
<path d="M136.976 866.764C135.913 868.89 134.74 870.957 133.463 872.956V801.044C134.74 803.043 135.913 805.11 136.976 807.236V866.764Z" fill="#4F6120"/>
<path d="M144 837C144 844.451 142.768 851.626 140.488 858.348V815.652C142.768 822.374 144 829.549 144 837Z" fill="#4F6120"/>
<path d="M108 837C108 856.054 91.8822 871.5 72 871.5C52.1177 871.5 36 856.054 36 837C36 817.946 52.1177 802.5 72 802.5C91.8822 802.5 108 817.946 108 837Z" fill="#4F6120"/>
<path d="M72 522C72 514.55 70.7677 507.375 68.4878 500.652V522H72Z" fill="#4F6120"/>
<path d="M61.4634 486.044C62.7397 488.043 63.9128 490.11 64.9756 492.237L64.9756 522H61.4634V486.044Z" fill="#4F6120"/>
<path d="M54.439 476.841C55.6651 478.197 56.8369 479.6 57.9512 481.045V522H54.439L54.439 476.841Z" fill="#4F6120"/>
<path d="M47.4146 470.073C48.6217 471.086 49.7931 472.137 50.9268 473.224V522H47.4146L47.4146 470.073Z" fill="#4F6120"/>
<path d="M40.3902 464.872C41.5872 465.65 42.7584 466.463 43.9024 467.307V522H40.3902V464.872Z" fill="#4F6120"/>
<path d="M33.3658 460.841C34.5566 461.438 35.7277 462.067 36.878 462.726L36.878 522H33.3658V460.841Z" fill="#4F6120"/>
<path d="M26.3415 457.764C27.5279 458.211 28.6989 458.688 29.8537 459.193V522H26.3415V457.764Z" fill="#4F6120"/>
<path d="M19.3171 455.512C20.5003 455.827 21.6713 456.17 22.8293 456.541L22.8293 522H19.3171L19.3171 455.512Z" fill="#4F6120"/>
<path d="M12.2927 454.002C13.4735 454.197 14.6445 454.419 15.8049 454.668L15.8049 522H12.2927L12.2927 454.002Z" fill="#4F6120"/>
<path d="M5.26828 453.182C6.44711 453.264 7.61806 453.373 8.78048 453.508L8.78048 522H5.26829L5.26828 453.182Z" fill="#4F6120"/>
<path d="M0 453.02C1.16735 452.994 0.588742 452.994 1.75609 453.02L1.75609 522H5.97083e-06L0 453.02Z" fill="#4F6120"/>
<path fill-rule="evenodd" clip-rule="evenodd" d="M144 522C144 445.785 79.529 384 0 384V418.5C59.6468 418.5 108 464.839 108 522L144 522Z" fill="#4F6120"/>
<path d="M0 714V679.5C59.6468 679.5 108 633.161 108 576L144 576C144 652.215 79.529 714 0 714Z" fill="#A7CC48"/>
<path d="M336 576H264L336 645V576Z" fill="#4F6120"/>
<path d="M336 645L264 645L336 714L336 645Z" fill="#4F6120"/>
<path d="M264 576L192 576L264 645L264 576Z" fill="#4F6120"/>
<path d="M264 645H192L264 714L264 645Z" fill="#4F6120"/>
<path d="M720 0H576L612 34.5H684V103.5L720 138V0Z" fill="#A7CC48"/>
<path d="M612 103.5H684L612 34.5L612 103.5Z" fill="#A7CC48"/>
<path fill-rule="evenodd" clip-rule="evenodd" d="M528 192C448.471 192 384 265.873 384 357V522C463.529 522 528 448.127 528 357V192ZM412.8 357C412.8 295.493 449.513 243.812 499.2 229.158V357C499.2 418.506 462.487 470.188 412.8 484.841V357Z" fill="#8AB51B"/>
<path d="M471.15 242.167C473.332 240.745 475.56 239.402 477.829 238.142H499.2V242.167H471.15Z" fill="#8AB51B"/>
<path d="M460.266 250.215C461.935 248.823 463.638 247.481 465.373 246.191L499.2 246.191V250.215H460.266Z" fill="#8AB51B"/>
<path d="M451.54 258.264C452.894 256.886 454.277 255.544 455.687 254.24L499.2 254.24V258.264H451.54Z" fill="#8AB51B"/>
<path d="M444.291 266.313C445.422 264.943 446.577 263.602 447.758 262.289L499.2 262.289V266.313L444.291 266.313Z" fill="#8AB51B"/>
<path d="M438.164 274.362C439.12 272.998 440.1 271.656 441.103 270.337L499.2 270.337V274.362H438.164Z" fill="#8AB51B"/>
<path d="M432.942 282.411C433.756 281.05 434.592 279.709 435.45 278.386L499.2 278.386V282.411L432.942 282.411Z" fill="#8AB51B"/>
<path d="M428.486 290.459C429.179 289.102 429.892 287.761 430.625 286.435H499.2V290.459H428.486Z" fill="#8AB51B"/>
<path d="M424.699 298.508C425.285 297.153 425.89 295.812 426.514 294.484L499.2 294.484V298.508L424.699 298.508Z" fill="#8AB51B"/>
<path d="M421.511 306.557C422 305.204 422.507 303.862 423.034 302.532L499.2 302.532V306.557H421.511Z" fill="#8AB51B"/>
<path d="M418.87 314.606C419.27 313.254 419.688 311.913 420.125 310.581H499.2V314.606L418.87 314.606Z" fill="#8AB51B"/>
<path d="M416.738 322.654C417.055 321.304 417.39 319.963 417.743 318.63H499.2V322.654H416.738Z" fill="#8AB51B"/>
<path d="M415.086 330.703C415.33 329.32 415.593 327.945 415.875 326.578H499.2V330.703H415.086Z" fill="#8AB51B"/>
<path d="M413.904 338.651C414.068 337.303 414.249 335.962 414.448 334.627L499.2 334.627V338.651H413.904Z" fill="#8AB51B"/>
<path d="M413.146 346.7C413.236 345.353 413.345 344.011 413.471 342.676H499.2V346.7L413.146 346.7Z" fill="#8AB51B"/>
<path d="M412.817 354.749C412.836 353.402 412.874 352.061 412.928 350.725H499.2V354.749H412.817Z" fill="#8AB51B"/>
<path d="M412.8 362.798V358.773H499.19C499.175 360.12 499.141 361.461 499.091 362.798L412.8 362.798Z" fill="#8AB51B"/>
<path d="M412.8 370.846V366.822L498.886 366.822C498.8 368.169 498.695 369.511 498.574 370.846H412.8Z" fill="#8AB51B"/>
<path d="M412.8 378.895V374.871H498.153C497.994 376.219 497.817 377.56 497.623 378.895L412.8 378.895Z" fill="#8AB51B"/>
<path d="M412.8 386.944V382.92H496.98C496.746 384.269 496.493 385.61 496.223 386.944H412.8Z" fill="#8AB51B"/>
<path d="M412.8 394.993V390.968H495.35C495.037 392.319 494.706 393.66 494.357 394.993L412.8 394.993Z" fill="#8AB51B"/>
<path d="M412.8 403.042V399.017L493.241 399.017C492.845 400.369 492.431 401.71 491.999 403.042H412.8Z" fill="#8AB51B"/>
<path d="M412.8 411.09V407.066H490.625C490.141 408.419 489.637 409.76 489.115 411.09L412.8 411.09Z" fill="#8AB51B"/>
<path d="M412.8 419.139V415.115H487.463C486.883 416.469 486.282 417.811 485.663 419.139H412.8Z" fill="#8AB51B"/>
<path d="M412.8 427.188V423.164H483.706C483.018 424.521 482.311 425.862 481.583 427.188H412.8Z" fill="#8AB51B"/>
<path d="M412.8 435.237V431.212H479.283C478.475 432.572 477.645 433.914 476.794 435.237H412.8Z" fill="#8AB51B"/>
<path d="M412.8 443.286V439.261H474.1C473.15 440.625 472.178 441.967 471.183 443.286H412.8Z" fill="#8AB51B"/>
<path d="M412.8 451.334V447.31H468.019C466.898 448.679 465.751 450.021 464.58 451.334H412.8Z" fill="#8AB51B"/>
<path d="M412.8 459.383V455.359H460.829C459.487 456.736 458.116 458.078 456.719 459.383H412.8Z" fill="#8AB51B"/>
<path d="M412.8 467.432V463.407H452.183C450.532 464.799 448.848 466.141 447.131 467.432H412.8Z" fill="#8AB51B"/>
<path d="M412.8 475.481V471.456H441.425C439.274 472.876 437.08 474.219 434.844 475.481H412.8Z" fill="#8AB51B"/>
<path d="M412.8 483.529V479.505H426.983C423.703 481.018 420.348 482.362 416.926 483.529H412.8Z" fill="#8AB51B"/>
<path d="M499.2 234.118H485.843C489.22 232.596 492.675 231.251 496.199 230.093H499.2V234.118Z" fill="#8AB51B"/>
<path fill-rule="evenodd" clip-rule="evenodd" d="M192 192C271.529 192 336 265.873 336 357V522C256.471 522 192 448.127 192 357V192ZM307.2 357C307.2 295.493 270.486 243.812 220.8 229.158V357C220.8 418.506 257.513 470.188 307.2 484.841V357Z" fill="#8AB51B"/>
<path d="M248.85 242.167C246.667 240.745 244.44 239.402 242.171 238.142H220.8V242.167H248.85Z" fill="#8AB51B"/>
<path d="M259.733 250.215C258.065 248.823 256.362 247.481 254.627 246.191L220.8 246.191V250.215H259.733Z" fill="#8AB51B"/>
<path d="M268.46 258.264C267.106 256.886 265.723 255.544 264.313 254.24L220.8 254.24V258.264H268.46Z" fill="#8AB51B"/>
<path d="M275.709 266.313C274.578 264.943 273.422 263.602 272.242 262.289L220.8 262.289V266.313L275.709 266.313Z" fill="#8AB51B"/>
<path d="M281.836 274.362C280.879 272.998 279.899 271.656 278.897 270.337L220.8 270.337V274.362H281.836Z" fill="#8AB51B"/>
<path d="M287.058 282.411C286.243 281.05 285.407 279.709 284.55 278.386L220.8 278.386V282.411L287.058 282.411Z" fill="#8AB51B"/>
<path d="M291.514 290.459C290.821 289.102 290.108 287.761 289.375 286.435H220.8V290.459H291.514Z" fill="#8AB51B"/>
<path d="M295.301 298.508C294.715 297.153 294.11 295.812 293.486 294.484L220.8 294.484V298.508L295.301 298.508Z" fill="#8AB51B"/>
<path d="M298.489 306.557C298 305.204 297.493 303.862 296.966 302.532L220.8 302.532V306.557H298.489Z" fill="#8AB51B"/>
<path d="M301.13 314.606C300.73 313.254 300.312 311.913 299.875 310.581H220.8V314.606L301.13 314.606Z" fill="#8AB51B"/>
<path d="M303.261 322.654C302.945 321.304 302.61 319.963 302.257 318.63H220.8V322.654H303.261Z" fill="#8AB51B"/>
<path d="M304.914 330.703C304.67 329.32 304.407 327.945 304.125 326.578H220.8V330.703H304.914Z" fill="#8AB51B"/>
<path d="M306.096 338.651C305.932 337.303 305.751 335.962 305.552 334.627L220.8 334.627V338.651H306.096Z" fill="#8AB51B"/>
<path d="M306.854 346.7C306.763 345.353 306.655 344.011 306.529 342.676H220.8V346.7L306.854 346.7Z" fill="#8AB51B"/>
<path d="M307.183 354.749C307.164 353.402 307.126 352.061 307.072 350.725H220.8V354.749H307.183Z" fill="#8AB51B"/>
<path d="M307.2 362.798V358.773H220.81C220.825 360.12 220.858 361.461 220.909 362.798L307.2 362.798Z" fill="#8AB51B"/>
<path d="M307.2 370.846V366.822L221.114 366.822C221.2 368.169 221.304 369.511 221.426 370.846H307.2Z" fill="#8AB51B"/>
<path d="M307.2 378.895V374.871H221.847C222.006 376.219 222.183 377.56 222.377 378.895L307.2 378.895Z" fill="#8AB51B"/>
<path d="M307.2 386.944V382.92H223.02C223.254 384.269 223.507 385.61 223.777 386.944H307.2Z" fill="#8AB51B"/>
<path d="M307.2 394.993V390.968H224.65C224.963 392.319 225.294 393.66 225.643 394.993L307.2 394.993Z" fill="#8AB51B"/>
<path d="M307.2 403.042V399.017L226.759 399.017C227.154 400.369 227.569 401.71 228.001 403.042H307.2Z" fill="#8AB51B"/>
<path d="M307.2 411.09V407.066H229.375C229.859 408.419 230.363 409.76 230.885 411.09L307.2 411.09Z" fill="#8AB51B"/>
<path d="M307.2 419.139V415.115H232.536C233.117 416.469 233.717 417.811 234.337 419.139H307.2Z" fill="#8AB51B"/>
<path d="M307.2 427.188V423.164H236.294C236.982 424.521 237.689 425.862 238.417 427.188H307.2Z" fill="#8AB51B"/>
<path d="M307.2 435.237V431.212H240.717C241.525 432.572 242.355 433.914 243.206 435.237H307.2Z" fill="#8AB51B"/>
<path d="M307.2 443.286V439.261H245.9C246.849 440.625 247.822 441.967 248.817 443.286H307.2Z" fill="#8AB51B"/>
<path d="M307.2 451.334V447.31H251.981C253.102 448.679 254.249 450.021 255.42 451.334H307.2Z" fill="#8AB51B"/>
<path d="M307.2 459.383V455.359H259.171C260.513 456.736 261.883 458.078 263.281 459.383H307.2Z" fill="#8AB51B"/>
<path d="M307.2 467.432V463.407H267.817C269.468 464.799 271.152 466.141 272.869 467.432H307.2Z" fill="#8AB51B"/>
<path d="M307.2 475.481V471.456H278.575C280.726 472.876 282.92 474.219 285.156 475.481H307.2Z" fill="#8AB51B"/>
<path d="M307.2 483.529V479.505H293.017C296.297 481.018 299.652 482.362 303.074 483.529H307.2Z" fill="#8AB51B"/>
<path d="M220.8 234.118H234.157C230.78 232.596 227.325 231.251 223.801 230.093H220.8V234.118Z" fill="#8AB51B"/>
<path d="M192 768H336L192 906V768Z" fill="#8AB51B"/>
<path d="M195.512 815.652C193.232 822.374 192 829.549 192 837C192 844.451 193.232 851.626 195.512 858.348V815.652Z" fill="#8AB51B"/>
<path d="M202.537 872.956C201.26 870.957 200.087 868.89 199.024 866.764V807.236C200.087 805.11 201.26 803.043 202.537 801.044V872.956Z" fill="#8AB51B"/>
<path d="M209.561 882.159C208.335 880.803 207.163 879.401 206.049 877.955V796.045C207.163 794.599 208.335 793.197 209.561 791.841V882.159Z" fill="#8AB51B"/>
<path d="M216.585 888.927C215.378 887.914 214.207 886.863 213.073 885.776V788.224C214.207 787.137 215.378 786.086 216.585 785.073V888.927Z" fill="#8AB51B"/>
<path d="M223.61 894.129C222.413 893.35 221.242 892.538 220.098 891.693V782.307C221.242 781.462 222.413 780.65 223.61 779.871V894.129Z" fill="#8AB51B"/>
<path d="M230.634 898.16C229.443 897.562 228.272 896.933 227.122 896.274V777.726C228.272 777.067 229.443 776.438 230.634 775.84V898.16Z" fill="#8AB51B"/>
<path d="M237.659 901.236C236.472 900.789 235.301 900.313 234.146 899.808V774.192C235.301 773.687 236.472 773.211 237.659 772.764V901.236Z" fill="#8AB51B"/>
<path d="M244.683 903.488C243.5 903.173 242.329 902.83 241.171 902.459V771.541C242.329 771.17 243.5 770.827 244.683 770.512V903.488Z" fill="#8AB51B"/>
<path d="M251.707 904.998C250.526 904.804 249.356 904.581 248.195 904.332V769.668C249.356 769.419 250.526 769.196 251.707 769.002V904.998Z" fill="#8AB51B"/>
<path d="M258.732 905.818C257.553 905.736 256.382 905.628 255.22 905.492V768.508C256.382 768.372 257.553 768.264 258.732 768.182V905.818Z" fill="#8AB51B"/>
<path d="M265.756 905.98C265.172 905.993 264.587 906 264 906C263.413 906 262.828 905.993 262.244 905.98V768.02C262.828 768.007 263.413 768 264 768C264.587 768 265.172 768.007 265.756 768.02V905.98Z" fill="#8AB51B"/>
<path d="M272.78 905.492C271.618 905.628 270.447 905.736 269.268 905.818V768.182C270.447 768.264 271.618 768.372 272.78 768.508V905.492Z" fill="#8AB51B"/>
<path d="M279.805 904.332C278.644 904.581 277.473 904.804 276.293 904.998V769.002C277.473 769.196 278.644 769.419 279.805 769.668V904.332Z" fill="#8AB51B"/>
<path d="M286.829 902.459C285.671 902.83 284.5 903.173 283.317 903.488V770.512C284.5 770.827 285.671 771.17 286.829 771.541V902.459Z" fill="#8AB51B"/>
<path d="M293.854 899.808C292.699 900.313 291.528 900.789 290.341 901.236V772.764C291.528 773.211 292.699 773.687 293.854 774.192V899.808Z" fill="#8AB51B"/>
<path d="M300.878 896.274C299.728 896.933 298.557 897.562 297.366 898.16V775.84C298.557 776.438 299.728 777.067 300.878 777.726V896.274Z" fill="#8AB51B"/>
<path d="M307.902 891.693C306.758 892.538 305.587 893.35 304.39 894.129V779.871C305.587 780.65 306.758 781.462 307.902 782.307V891.693Z" fill="#8AB51B"/>
<path d="M314.927 885.776C313.793 886.863 312.622 887.914 311.415 888.927V785.073C312.622 786.086 313.793 787.137 314.927 788.224V885.776Z" fill="#8AB51B"/>
<path d="M321.951 877.955C320.837 879.401 319.665 880.803 318.439 882.159V791.841C319.665 793.197 320.837 794.599 321.951 796.045V877.955Z" fill="#8AB51B"/>
<path d="M328.976 866.764C327.913 868.89 326.74 870.957 325.463 872.956V801.044C326.74 803.043 327.913 805.11 328.976 807.236V866.764Z" fill="#8AB51B"/>
<path d="M336 837C336 844.451 334.768 851.626 332.488 858.348V815.652C334.768 822.374 336 829.549 336 837Z" fill="#8AB51B"/>
</svg>
